<svg xmlns="http://www.w3.org/2000/svg" width="512" height="512" viewBox="0 0 512 512">

<!-- Background -->
<rect width="512" height="512" fill="#000000"/>

<!-- Outer glow rings -->
<circle cx="256" cy="240" r="210" fill="none" stroke="#F5C842" stroke-width="0.5" opacity="0.08"/>
<circle cx="256" cy="240" r="188" fill="none" stroke="#F5C842" stroke-width="0.5" opacity="0.12"/>
<circle cx="256" cy="240" r="165" fill="none" stroke="#F5C842" stroke-width="1" opacity="0.1"/>

<!-- Face base circle -->
<circle cx="256" cy="235" r="132" fill="#0d0d0d"/>
<circle cx="256" cy="235" r="132" fill="none" stroke="#F5C842" stroke-width="1.5" opacity="0.6"/>

<!-- Crown base -->
<rect x="172" y="112" width="168" height="14" rx="3" fill="#C9952A"/>
<rect x="172" y="112" width="168" height="5" rx="2" fill="#FFE085"/>

<!-- Crown peaks -->
<polygon points="172,112 192,72 212,112" fill="#C9952A"/>
<polygon points="172,112 192,72 212,112" fill="none" stroke="#FFE085" stroke-width="1.2"/>
<polygon points="216,112 236,56 256,112" fill="#F5C842"/>
<polygon points="216,112 236,56 256,112" fill="none" stroke="#FFE085" stroke-width="1.2"/>
<polygon points="256,112 276,64 296,112" fill="#F5C842"/>
<polygon points="256,112 276,64 296,112" fill="none" stroke="#FFE085" stroke-width="1.2"/>
<polygon points="300,112 320,72 340,112" fill="#C9952A"/>
<polygon points="300,112 320,72 340,112" fill="none" stroke="#FFE085" stroke-width="1.2"/>

<!-- Crown gems -->
<circle cx="192" cy="79" r="6" fill="#FFE085"/>
<circle cx="192" cy="79" r="3" fill="#fff" opacity="0.8"/>
<circle cx="236" cy="63" r="7" fill="#FFE085"/>
<circle cx="236" cy="63" r="3.5" fill="#fff" opacity="0.8"/>
<circle cx="276" cy="70" r="7" fill="#FFE085"/>
<circle cx="276" cy="70" r="3.5" fill="#fff" opacity="0.8"/>
<circle cx="320" cy="79" r="6" fill="#FFE085"/>
<circle cx="320" cy="79" r="3" fill="#fff" opacity="0.8"/>

<!-- Face shape -->
<ellipse cx="256" cy="242" rx="98" ry="117" fill="#1a1208"/>

<!-- Eyebrows -->
<path d="M200 202 Q222 192 240 198" fill="none" stroke="#C9952A" stroke-width="3" stroke-linecap="round"/>
<path d="M272 198 Q290 192 312 202" fill="none" stroke="#C9952A" stroke-width="3" stroke-linecap="round"/>

<!-- Eyes left -->
<ellipse cx="220" cy="222" rx="20" ry="14" fill="#0a0a0a"/>
<ellipse cx="220" cy="222" rx="20" ry="14" fill="none" stroke="#F5C842" stroke-width="1.2"/>
<circle cx="220" cy="222" r="10" fill="#1a0f00"/>
<circle cx="220" cy="222" r="6" fill="#F5C842" opacity="0.9"/>
<circle cx="220" cy="222" r="3" fill="#000"/>
<circle cx="222" cy="219" r="2" fill="#fff" opacity="0.9"/>

<!-- Eyes right -->
<ellipse cx="292" cy="222" rx="20" ry="14" fill="#0a0a0a"/>
<ellipse cx="292" cy="222" rx="20" ry="14" fill="none" stroke="#F5C842" stroke-width="1.2"/>
<circle cx="292" cy="222" r="10" fill="#1a0f00"/>
<circle cx="292" cy="222" r="6" fill="#F5C842" opacity="0.9"/>
<circle cx="292" cy="222" r="3" fill="#000"/>
<circle cx="294" cy="219" r="2" fill="#fff" opacity="0.9"/>

<!-- Eye glow lines -->
<line x1="178" y1="222" x2="200" y2="222" stroke="#F5C842" stroke-width="0.8" opacity="0.4"/>
<line x1="240" y1="222" x2="272" y2="222" stroke="#F5C842" stroke-width="0.8" opacity="0.4"/>
<line x1="312" y1="222" x2="334" y2="222" stroke="#F5C842" stroke-width="0.8" opacity="0.4"/>

<!-- Nose -->
<path d="M248 238 Q256 264 264 238" fill="none" stroke="#C9952A" stroke-width="1.5" stroke-linecap="round" opacity="0.7"/>
<path d="M242 268 Q256 274 270 268" fill="none" stroke="#C9952A" stroke-width="1.5" stroke-linecap="round" opacity="0.7"/>

<!-- Mouth -->
<path d="M228 295 Q256 312 284 295" fill="none" stroke="#F5C842" stroke-width="2" stroke-linecap="round"/>

<!-- Beard -->
<path d="M182 278 Q194 334 210 348 Q256 370 302 348 Q318 334 330 278" fill="#0f0a02" stroke="#C9952A" stroke-width="1.2" opacity="0.8"/>
<path d="M194 294 Q210 342 256 356 Q302 342 318 294" fill="#1a1208"/>
<path d="M210 302 Q220 340 244 350" fill="none" stroke="#C9952A" stroke-width="0.8" opacity="0.4"/>
<path d="M228 298 Q234 340 256 354" fill="none" stroke="#C9952A" stroke-width="0.8" opacity="0.4"/>
<path d="M278 298 Q278 340 256 354" fill="none" stroke="#C9952A" stroke-width="0.8" opacity="0.4"/>

<!-- Ears -->
<ellipse cx="158" cy="242" rx="14" ry="19" fill="#1a1208" stroke="#C9952A" stroke-width="1.2"/>
<ellipse cx="158" cy="242" rx="7" ry="11" fill="#0d0d0d"/>
<ellipse cx="354" cy="242" rx="14" ry="19" fill="#1a1208" stroke="#C9952A" stroke-width="1.2"/>
<ellipse cx="354" cy="242" rx="7" ry="11" fill="#0d0d0d"/>

<!-- Earrings -->
<circle cx="158" cy="261" r="4" fill="#F5C842"/>
<circle cx="354" cy="261" r="4" fill="#F5C842"/>

<!-- Bottom text -->
<text x="256" y="428" font-family="serif" font-size="38" font-weight="700" fill="#F5C842" text-anchor="middle" letter-spacing="10">MIDAS</text>
<line x1="148" y1="440" x2="364" y2="440" stroke="#F5C842" stroke-width="0.8" opacity="0.4"/>
<text x="256" y="462" font-family="sans-serif" font-size="11" fill="#C9952A" text-anchor="middle" letter-spacing="4">AI TRADING AGENT</text>

<!-- Corner decorations -->
<path d="M24 24 L54 24 L24 54" fill="none" stroke="#F5C842" stroke-width="1" opacity="0.3"/>
<path d="M488 24 L458 24 L488 54" fill="none" stroke="#F5C842" stroke-width="1" opacity="0.3"/>
<path d="M24 488 L54 488 L24 458" fill="none" stroke="#F5C842" stroke-width="1" opacity="0.3"/>
<path d="M488 488 L458 488 L488 458" fill="none" stroke="#F5C842" stroke-width="1" opacity="0.3"/>
</svg>
